<?xml version="1.0" encoding="UTF-8"?><svg id="Layer_2" xmlns="http://www.w3.org/2000/svg" viewBox="0 0 381.33 381.33"><defs><style>.cls-1{fill:none;}.cls-1,.cls-2,.cls-3{stroke-width:0px;}.cls-2{fill:red;}.cls-3{fill:#fff;}</style></defs><g id="Layer_1-2"><path class="cls-3" d="M226.46,148.12c-3.4-1.15-6.76-2.45-10.08-3.92l-.64,11.96c-6.78,16.77-23.31,45.1-44.05,73.4l1.91,9.7,10.16,4.34.25-7.69,42.37-11.14,26.69,24.86v5.08h7.09l2.54-9.05c-18.56-26.65-30.64-62.85-36.81-84.8.19-4.22.38-8.48.57-12.74Z"/><path class="cls-3" d="M257.77,301.25v-10.39l-26.85-25.46-51.88,10.65-.51,10.55s10.37,5.49,6.27,16.1l-4.19,10.6,22.99,18.84,2.93,15.52-47.8-39.25-51.42-42.14-42.52,39.68h-.07c49.18,53.72,126.99,70.36,193.84,41.47-2.82-8.29-8.57-24.46-10.32-30.74-4.19-15.04,9.52-15.41,9.52-15.41Z"/><path class="cls-3" d="M305.12,129.41c-.64-27.88-25.42-19.23-21.64-46.88,3.49-25.58-18.79-47.82-39.98-44.1,8.41,6.83,21.61,21.61,10.84,43.54-9.54,19.5-10.47,29.76-.71,47.48l-20.27,4.02c-.6,3.57-1.03,7.15-1.31,10.73,34.68-7.18,69.01-14.13,73.07-14.79Z"/><circle class="cls-3" cx="177.83" cy="70" r="11.04"/><path class="cls-3" d="M190.66,381.33C85.36,381.33,0,295.96,0,190.66S85.36,0,190.66,0s190.66,85.36,190.66,190.66h0c-.12,105.25-85.41,190.55-190.66,190.66ZM190.66,10.07C90.92,10.07,10.07,90.92,10.07,190.66s80.86,180.6,180.6,180.6,180.6-80.86,180.6-180.6h0c-.1-99.7-80.9-180.49-180.6-180.6Z"/><path class="cls-1" d="M190.65,20.07c-94.06,0-170.59,76.54-170.59,170.6,0,1.05.02,2.1.04,3.15,21.05-23.64,42.92-42,65.26-54.7,22.69-12.9,45.89-20.04,68.97-21.23,31.01-1.59,53.1,7.87,61.64,12.32-.17-4.61-.94-12.55-3.85-21.22-6-17.85-17.83-30.18-35.16-36.64l1.75-4.68c23.51,8.77,33.76,26.54,38.21,39.91,4.79,14.38,4.08,26.57,4.05,27.08l-.27,4.25-3.58-2.31c-.24-.16-24.92-15.74-62.84-13.69-32.45,1.75-81.06,17.14-133.89,78.16,5.39,89.25,79.69,160.2,170.27,160.2s170.6-76.53,170.6-170.6c-.1-93.96-76.64-170.49-170.61-170.6Z"/><path class="cls-2" d="M154.28,122.89c37.91-2.04,62.59,13.54,62.84,13.69l3.58,2.31.27-4.25c.03-.51.75-12.7-4.05-27.08-4.46-13.37-14.7-31.14-38.21-39.91l-1.75,4.68c17.33,6.46,29.16,18.79,35.16,36.64,2.91,8.66,3.68,16.61,3.85,21.22-8.53-4.45-30.63-13.91-61.64-12.32-23.08,1.19-46.28,8.33-68.97,21.23-22.34,12.7-44.21,31.06-65.26,54.7.04,2.43.14,4.84.29,7.24,52.83-61.02,101.43-76.41,133.89-78.16Z"/><polygon class="cls-2" points="220.44 128.9 230.1 117.9 223.33 131.87 231.77 136.16 222.78 135.74 223.32 145.03 218.08 137.99 202.62 153.16 213.95 135.93 205.51 130.99 217.04 130.72 218.06 121.66 220.44 128.9"/></g></svg>